<?xml version="1.0" standalone="no"?>
<!DOCTYPE svg PUBLIC "-//W3C//DTD SVG 20010904//EN"
 "http://www.w3.org/TR/2001/REC-SVG-20010904/DTD/svg10.dtd">
<svg version="1.0" xmlns="http://www.w3.org/2000/svg"
 width="312.000000pt" height="340.000000pt" viewBox="0 0 312.000000 340.000000"
 preserveAspectRatio="xMidYMid meet">
<metadata>
Created by potrace 1.15, written by Peter Selinger 2001-2017
</metadata>
<g transform="translate(0.000000,340.000000) scale(0.100000,-0.100000)"
fill="#000000" stroke="none">
<path d="M1715 2993 c407 -52 728 -232 985 -550 175 -216 288 -499 307 -767 4
-53 9 -82 13 -71 4 11 6 25 4 30 -1 6 -5 39 -9 75 -46 481 -371 939 -820 1155
-147 70 -389 138 -479 134 l-31 -2 30 -4z"/>
<path d="M1050 2921 c-497 -183 -842 -600 -935 -1132 -17 -98 -21 -346 -6
-444 34 -228 115 -437 244 -630 84 -125 267 -306 394 -388 99 -65 261 -148
285 -146 7 0 2 5 -12 11 -96 43 -188 92 -256 138 -323 217 -523 505 -621 895
-26 102 -28 124 -28 320 0 165 4 227 18 290 65 292 181 512 381 722 150 158
332 277 541 355 55 20 93 37 85 37 -8 0 -49 -13 -90 -28z"/>
<path d="M1365 2933 c-51 -6 -217 -45 -212 -49 2 -2 35 3 72 11 37 9 70 13 74
10 3 -4 11 -39 18 -78 12 -71 33 -189 93 -522 17 -93 39 -219 50 -280 10 -60
25 -143 33 -183 l14 -73 -29 -15 -28 -15 -68 106 c-37 57 -98 153 -135 212
-38 60 -124 196 -193 303 -121 189 -193 302 -222 347 -13 21 -11 24 95 76 59
30 125 60 146 67 21 6 37 14 34 16 -8 8 -121 -37 -196 -77 -270 -145 -474
-352 -605 -616 -53 -107 -87 -208 -118 -345 -33 -149 -33 -397 1 -552 31 -147
63 -241 126 -366 111 -221 213 -336 467 -530 61 -47 299 -161 332 -160 6 1
-14 11 -44 24 -115 47 -290 142 -290 156 0 4 46 72 102 153 100 142 343 493
462 666 106 156 93 143 127 125 21 -10 28 -20 25 -32 -3 -9 -26 -111 -51 -227
-45 -211 -49 -228 -84 -385 -19 -81 -67 -304 -75 -346 -2 -10 -12 -52 -21 -91
-18 -80 -18 -79 -93 -52 -31 12 -51 11 -31 -1 23 -13 199 -52 218 -47 9 2 -5
7 -31 11 -56 9 -56 6 -29 132 23 104 127 579 177 809 49 219 45 209 79 210 33
0 34 -4 59 -145 8 -47 27 -148 41 -225 14 -77 32 -176 40 -220 29 -163 76
-422 89 -488 14 -77 17 -73 -60 -87 -27 -4 -38 -8 -24 -9 88 -4 336 63 475
128 274 130 525 383 654 663 206 446 165 974 -107 1383 -71 107 -229 275 -324
344 -132 95 -333 191 -488 231 -72 19 -200 38 -194 29 3 -5 17 -9 32 -9 15 0
43 -5 63 -10 l36 -10 -14 -63 c-67 -298 -233 -1053 -233 -1059 0 -10 -70 -10
-70 0 0 4 -10 57 -21 117 -23 123 -70 383 -99 550 -11 61 -30 169 -44 240 -13
72 -27 153 -31 182 l-7 51 69 7 c37 3 75 8 83 9 20 5 -77 4 -115 -1z m650 -75
c109 -37 325 -150 325 -169 0 -6 -90 -139 -201 -297 -110 -158 -257 -369 -327
-469 -116 -167 -129 -182 -152 -177 -14 3 -28 9 -32 12 -4 4 6 66 22 137 16
72 36 164 45 205 9 41 22 102 30 135 8 33 21 92 29 130 9 39 27 124 42 190 15
66 30 139 35 162 10 53 39 166 45 175 5 7 51 -4 139 -34z m-1133 -273 c27 -44
99 -156 159 -250 60 -93 146 -228 191 -300 45 -71 105 -167 135 -212 29 -46
53 -87 53 -91 0 -5 -9 -17 -20 -27 -20 -18 -21 -18 -48 1 -15 11 -142 101
-282 199 -492 344 -625 438 -634 446 -21 19 170 222 297 316 l61 45 19 -24
c11 -12 42 -59 69 -103z m1560 33 c82 -69 155 -145 225 -236 48 -62 54 -75 42
-86 -31 -29 -953 -616 -968 -616 -4 0 -13 11 -21 24 -15 29 -34 -2 258 416
110 157 242 345 292 418 51 72 97 132 101 132 4 0 36 -24 71 -52z m-1855 -406
c93 -65 239 -167 326 -227 87 -61 223 -157 303 -214 135 -97 145 -106 139
-130 -4 -14 -9 -28 -11 -30 -4 -4 -125 21 -289 60 -44 10 -235 53 -425 94
-423 93 -420 92 -420 111 0 8 16 62 35 121 32 98 150 333 167 333 4 0 83 -53
175 -118z m2212 -42 c44 -83 106 -258 117 -327 5 -32 3 -44 -7 -48 -15 -5
-784 -142 -997 -177 -72 -12 -127 -17 -133 -11 -4 4 -10 18 -11 30 -3 22 2 26
540 369 111 71 253 161 315 201 128 83 112 86 176 -37z m-2472 -361 c48 -11
115 -26 148 -34 322 -71 833 -185 850 -190 16 -4 11 -58 -6 -66 -8 -4 -149
-31 -314 -59 -165 -28 -347 -60 -405 -70 -318 -58 -402 -72 -405 -68 -19 19
-29 257 -16 368 16 127 20 140 42 140 10 0 58 -9 106 -21z m2604 -46 c0 -5 2
-17 5 -28 2 -11 7 -78 10 -150 7 -127 -7 -284 -26 -315 -7 -11 -26 -10 -112 9
-57 13 -168 38 -248 56 -528 119 -618 139 -710 157 -65 13 -62 11 -66 43 -2
19 4 29 19 35 12 6 128 28 257 50 400 70 459 80 645 114 195 36 225 40 226 29z
m-1273 -32 c73 -38 112 -104 112 -191 0 -87 -55 -163 -136 -190 -60 -20 -147
-8 -196 26 -86 61 -115 180 -64 267 62 108 177 143 284 88z m-299 -294 c-14
-11 -241 -158 -459 -297 -140 -90 -298 -191 -350 -225 -52 -33 -111 -71 -131
-83 l-37 -22 -14 22 c-66 103 -155 338 -161 423 l-2 40 150 27 c83 15 283 50
445 79 162 29 349 62 415 73 l120 22 14 -28 c8 -15 13 -29 10 -31z m607 7 c60
-14 150 -34 199 -44 50 -11 180 -40 290 -65 110 -25 250 -57 310 -70 135 -29
145 -33 145 -54 0 -26 -65 -213 -95 -273 -42 -84 -98 -178 -107 -178 -4 0 -92
60 -195 133 -186 132 -570 402 -690 486 -35 24 -63 47 -63 50 0 3 3 17 7 29 7
28 21 27 199 -14z m-565 -55 c17 -20 16 -23 -54 -122 -86 -124 -156 -225 -397
-576 -102 -149 -189 -270 -195 -271 -49 -1 -376 344 -349 369 9 9 141 95 411
268 70 45 223 143 338 217 116 75 214 136 219 136 5 0 17 -9 27 -21z m582
-152 c626 -440 707 -498 707 -508 0 -13 -93 -120 -166 -191 -65 -64 -181 -158
-195 -158 -4 0 -69 98 -144 218 -76 119 -153 240 -170 267 -175 269 -282 436
-299 467 -21 37 -21 37 -1 52 11 9 23 16 28 16 4 0 112 -73 240 -163z m-223
-20 c46 -72 156 -244 243 -382 87 -137 191 -299 230 -358 81 -124 82 -116 -28
-170 -133 -66 -363 -142 -379 -126 -3 3 -19 82 -36 175 -17 93 -44 239 -60
324 -16 85 -47 259 -70 385 -22 127 -43 238 -46 248 -5 16 21 35 51 36 6 1 48
-59 95 -132z"/>
<path d="M1450 1701 c0 -5 5 -13 11 -16 7 -5 4 -15 -9 -29 -32 -34 -42 -62
-42 -112 0 -86 63 -148 150 -148 91 1 150 58 150 147 0 58 -19 98 -61 128 -33
23 -100 31 -152 16 -18 -5 -26 -4 -25 4 2 6 -3 14 -9 16 -7 3 -13 0 -13 -6z
m192 -43 c109 -77 56 -248 -77 -248 -85 0 -145 55 -145 133 0 116 128 183 222
115z"/>
<path d="M1500 1628 c-61 -42 -59 -130 4 -169 37 -23 67 -24 106 -4 72 37 73
142 1 179 -41 22 -72 20 -111 -6z m115 -41 c38 -54 4 -111 -61 -105 -29 2 -42
9 -53 30 -41 73 66 143 114 75z"/>
<path d="M3016 1469 c-3 -13 -8 -53 -11 -89 -25 -281 -147 -561 -345 -795
-102 -120 -198 -201 -349 -294 -95 -59 -166 -91 -291 -132 -47 -16 -78 -28
-70 -28 27 -1 164 46 245 83 176 82 383 247 512 409 178 223 282 482 312 778
8 83 7 114 -3 68z"/>
</g>
</svg>
